<?xml version="1.0" encoding="iso-8859-1"?>
<!-- Generator: Adobe Illustrator 16.0.0, SVG Export Plug-In . SVG Version: 6.00 Build 0)  -->
<!DOCTYPE svg PUBLIC "-//W3C//DTD SVG 1.1//EN" "http://www.w3.org/Graphics/SVG/1.1/DTD/svg11.dtd">
<svg version="1.1" id="Capa_1" xmlns="http://www.w3.org/2000/svg" xmlns:xlink="http://www.w3.org/1999/xlink" x="0px" y="0px"
	 width="679.189px" height="679.189px" viewBox="0 0 679.189 679.189" style="enable-background:new 0 0 679.189 679.189;"
	 xml:space="preserve">
<g>
	<path d="M634.419,249.837c-11.261-41.715-30.148-80.709-57.585-117.478c-27.437-36.686-60.594-66.942-100.471-89.613
		C437.41,20.569,395.653,5.977,351.16,0.206c-9.233-1.154-16.455,2.556-21.253,10.8c-4.873,8.409-4.188,16.571,1.542,23.99
		c36.786,47.486,56.793,100.825,60.668,160.76c3.858,59.522-9.621,114.923-39.415,166.943
		c-26.241,45.754-61.749,82.028-107.816,108.574c-45.903,26.464-95.45,39.406-148.394,39.406c-17,0-29.753-0.741-38.252-2.308
		c-9.662-0.742-16.793,2.803-21.253,10.8c-4.814,8.656-4.683,16.652,1.542,24.732c28.937,37.593,62.268,66.776,98.929,87.717
		c55.31,31.657,111.683,47.568,169.259,47.568c59.902,0,115.879-15.581,168.485-46.332c52.894-31.08,94.815-72.63,125.211-125.228
		c22.936-39.736,37.099-82.358,42.507-127.536C648.327,334.834,645.565,291.223,634.419,249.837z M563.313,483.64
		c-26.604,46.002-62.993,82.358-108.979,108.986c-45.985,26.629-95.062,39.819-147.619,39.819
		c-52.556,0-102.029-13.521-148.006-40.231c-21.262-12.283-38.64-25.474-52.944-38.994c58.739-1.566,113.233-17.396,163.852-47.568
		c50.627-30.091,90.668-70.734,120.183-121.683c29.612-51.114,45.021-106.267,45.598-165.376
		c0.585-59.193-12.754-114.428-40.569-165.459c22.021,7.337,42.004,16.818,59.894,27.041
		c84.131,48.146,135.723,134.956,146.077,223.745C607.823,364.348,595.449,428.074,563.313,483.64z"/>
</g>
<g>
</g>
<g>
</g>
<g>
</g>
<g>
</g>
<g>
</g>
<g>
</g>
<g>
</g>
<g>
</g>
<g>
</g>
<g>
</g>
<g>
</g>
<g>
</g>
<g>
</g>
<g>
</g>
<g>
</g>
</svg>
