<svg width="612" height="612" xmlns="http://www.w3.org/2000/svg">

 <g>
  <title>background</title>
  <rect fill="none" id="canvas_background" height="681.189" width="681.189" y="-1" x="-1"/>
 </g>
 <g>
  <title>Layer 1</title>
  <g id="svg_1">
   <g id="Sun">
    <g id="svg_2">
     <path fill="#fcfcfc" id="svg_3" d="m104.914,306c0,-14.478 -11.75,-26.229 -26.229,-26.229l-52.456,0c-14.479,0 -26.229,11.751 -26.229,26.229c0,14.479 11.75,26.229 26.229,26.229l52.457,0c14.478,0 26.228,-11.75 26.228,-26.229zm26.229,148.629c-7.239,0 -13.796,2.938 -18.553,7.676l-34.971,34.972c-4.739,4.756 -7.676,11.313 -7.676,18.552c0,14.479 11.733,26.229 26.229,26.229c7.239,0 13.796,-2.938 18.535,-7.693l34.972,-34.972c4.756,-4.738 7.694,-11.295 7.694,-18.534c-0.001,-14.48 -11.734,-26.23 -26.23,-26.23zm174.857,-349.715c14.496,0 26.229,-11.75 26.229,-26.229l0,-52.456c0,-14.479 -11.733,-26.229 -26.229,-26.229c-14.496,0 -26.229,11.75 -26.229,26.229l0,52.457c0,14.478 11.733,26.228 26.229,26.228zm174.857,52.458c7.239,0 13.796,-2.938 18.534,-7.676l34.972,-34.972c4.756,-4.756 7.693,-11.313 7.693,-18.552c0,-14.478 -11.732,-26.229 -26.229,-26.229c-7.238,0 -13.796,2.938 -18.552,7.694l-34.972,34.971c-4.738,4.739 -7.676,11.296 -7.676,18.535c0.002,14.478 11.734,26.229 26.23,26.229zm-368.267,-7.677c4.756,4.738 11.313,7.676 18.553,7.676c14.478,0 26.229,-11.75 26.229,-26.229c0,-7.239 -2.938,-13.796 -7.676,-18.552l-34.972,-34.971c-4.756,-4.739 -11.313,-7.676 -18.552,-7.676c-14.478,0 -26.229,11.75 -26.229,26.229c0,7.239 2.938,13.796 7.676,18.535l34.971,34.988zm473.181,130.076l-52.457,0c-14.479,0 -26.229,11.75 -26.229,26.229c0,14.479 11.75,26.229 26.229,26.229l52.457,0c14.479,0 26.229,-11.75 26.229,-26.229c0,-14.478 -11.75,-26.229 -26.229,-26.229zm-86.362,182.534c-4.756,-4.738 -11.312,-7.676 -18.552,-7.676c-14.479,0 -26.229,11.75 -26.229,26.229c0,7.239 2.938,13.796 7.676,18.534l34.972,34.972c4.756,4.756 11.313,7.693 18.552,7.693c14.479,0 26.229,-11.75 26.229,-26.229c0,-7.238 -2.938,-13.796 -7.676,-18.552l-34.972,-34.971zm-193.409,44.781c-14.496,0 -26.229,11.75 -26.229,26.229l0,52.457c0,14.478 11.733,26.228 26.229,26.228c14.496,0 26.229,-11.75 26.229,-26.229l0,-52.457c0,-14.478 -11.733,-26.228 -26.229,-26.228zm0,-384.686c-101.242,0 -183.6,82.358 -183.6,183.6s82.358,183.6 183.6,183.6s183.6,-82.358 183.6,-183.6s-82.358,-183.6 -183.6,-183.6zm0,314.743c-72.321,0 -131.143,-58.821 -131.143,-131.143c0,-72.321 58.822,-131.143 131.143,-131.143c72.321,0 131.143,58.822 131.143,131.143c0,72.321 -58.822,131.143 -131.143,131.143z"/>
    </g>
   </g>
  </g>
  <g id="svg_4"/>
  <g id="svg_5"/>
  <g id="svg_6"/>
  <g id="svg_7"/>
  <g id="svg_8"/>
  <g id="svg_9"/>
  <g id="svg_10"/>
  <g id="svg_11"/>
  <g id="svg_12"/>
  <g id="svg_13"/>
  <g id="svg_14"/>
  <g id="svg_15"/>
  <g id="svg_16"/>
  <g id="svg_17"/>
  <g id="svg_18"/>
 </g>
</svg>