<svg width="30" height="16" viewBox="0 0 30 16" fill="none" xmlns="http://www.w3.org/2000/svg">
<path d="M27.309 0.958252H11.1719C9.80642 0.958252 8.68924 1.93325 8.68924 3.12492V12.8749C8.68924 14.0774 9.80642 15.0416 11.1719 15.0416H27.309C28.6869 15.0416 29.7917 14.0774 29.7917 12.8749V3.12492C29.7917 1.93325 28.6869 0.958252 27.309 0.958252ZM27.309 12.8749H11.1719V4.93408L19.2405 8.54158L27.309 4.93408V12.8749ZM19.2405 6.71075L11.1719 3.12492H27.309L19.2405 6.71075ZM6.2066 12.8749C6.2066 13.0591 6.24384 13.2324 6.26866 13.4166H1.24132C0.556111 13.4166 0 12.9291 0 12.3333C0 11.7374 0.556111 11.2499 1.24132 11.2499H6.2066V12.8749ZM3.72396 2.58325H6.26866C6.24384 2.76742 6.2066 2.94075 6.2066 3.12492V4.74992H3.72396C3.04123 4.74992 2.48264 4.26242 2.48264 3.66658C2.48264 3.07075 3.04123 2.58325 3.72396 2.58325ZM1.24132 7.99992C1.24132 7.40408 1.79991 6.91658 2.48264 6.91658H6.2066V9.08325H2.48264C1.79991 9.08325 1.24132 8.59575 1.24132 7.99992Z" fill="#ABB2BF"/>
</svg>
