<svg width="30" height="28" viewBox="0 0 30 28" fill="none" xmlns="http://www.w3.org/2000/svg">
<path d="M14.7295 0.25C6.75277 0.25 0.291992 6.55876 0.291992 14.3478C0.291992 20.5861 4.42473 25.8551 10.1636 27.7231C10.8855 27.8464 11.1562 27.4235 11.1562 27.0534C11.1562 26.7186 11.1382 25.6084 11.1382 24.4277C7.51074 25.0797 6.5723 23.5642 6.28355 22.7712C6.12113 22.3659 5.4173 21.1147 4.80371 20.7799C4.2984 20.5156 3.57652 19.8635 4.78566 19.8459C5.92262 19.8283 6.73473 20.868 7.00543 21.291C8.3048 23.4232 10.3802 22.8241 11.2104 22.454C11.3367 21.5377 11.7157 20.9209 12.1307 20.5684C8.9184 20.216 5.56168 19.0001 5.56168 13.6077C5.56168 12.0745 6.12113 10.8057 7.04152 9.81887C6.89715 9.46643 6.39184 8.02141 7.1859 6.08296C7.1859 6.08296 8.39504 5.71289 11.1562 7.52798C12.3112 7.21078 13.5384 7.05218 14.7656 7.05218C15.9928 7.05218 17.22 7.21078 18.375 7.52798C21.1361 5.69527 22.3453 6.08296 22.3453 6.08296C23.1393 8.02141 22.634 9.46643 22.4896 9.81887C23.41 10.8057 23.9695 12.0569 23.9695 13.6077C23.9695 19.0177 20.5947 20.216 17.3824 20.5684C17.9057 21.009 18.3569 21.8549 18.3569 23.1765C18.3569 25.0621 18.3389 26.5776 18.3389 27.0534C18.3389 27.4235 18.6096 27.864 19.3314 27.7231C22.1977 26.7785 24.6884 24.9799 26.4528 22.5805C28.2172 20.1811 29.1665 17.3017 29.167 14.3478C29.167 6.55876 22.7062 0.25 14.7295 0.25Z" fill="#ABB2BF"/>
</svg>
