<svg width="250.579" height="250.579" xmlns="http://www.w3.org/2000/svg">

 <g>
  <title>background</title>
  <rect fill="none" id="canvas_background" height="402" width="582" y="-1" x="-1"/>
 </g>
 <g>
  <title>Layer 1</title>
  <g id="Menu">
   <path fill="#fcfcfc" id="svg_1" fill-rule="evenodd" clip-rule="evenodd" d="m22.373,76.068l205.832,0c12.356,0 22.374,-10.017 22.374,-22.373c0,-12.356 -10.017,-22.373 -22.374,-22.373l-205.832,0c-12.356,0.001 -22.373,10.017 -22.373,22.374c0,12.356 10.017,22.372 22.373,22.372zm205.832,26.848l-205.832,0c-12.356,0 -22.373,10.017 -22.373,22.373c0,12.357 10.017,22.373 22.373,22.373l205.832,0c12.356,0 22.374,-10.016 22.374,-22.373c0,-12.356 -10.018,-22.373 -22.374,-22.373zm0,71.594l-205.832,0c-12.356,0 -22.373,10.016 -22.373,22.373c0,12.356 10.017,22.373 22.373,22.373l205.832,0c12.356,0 22.374,-10.017 22.374,-22.373c0,-12.357 -10.018,-22.373 -22.374,-22.373z"/>
  </g>
  <g id="svg_2"/>
  <g id="svg_3"/>
  <g id="svg_4"/>
  <g id="svg_5"/>
  <g id="svg_6"/>
  <g id="svg_7"/>
  <g id="svg_8"/>
  <g id="svg_9"/>
  <g id="svg_10"/>
  <g id="svg_11"/>
  <g id="svg_12"/>
  <g id="svg_13"/>
  <g id="svg_14"/>
  <g id="svg_15"/>
  <g id="svg_16"/>
 </g>
</svg>